<svg version="1.0" xmlns="http://www.w3.org/2000/svg"
width="32.000000pt" height="32.000000pt" viewBox="0 0 32.000000 32.000000"
preserveAspectRatio="xMidYMid meet">

    <g transform="translate(0.000000,32.000000) scale(0.100000,-0.100000)"
    fill="#000000" stroke="none">
    <path d="M95 306 c-101 -44 -125 -178 -46 -257 65 -65 157 -65 222 0 124 124
    -15 327 -176 257z m64 -100 c-7 -36 -15 -66 -19 -66 -4 0 -15 9 -24 19 -17 18
    -16 21 16 69 18 28 34 49 36 47 2 -1 -3 -32 -9 -69z m45 -45 c17 -19 16 -22
    -18 -73 -20 -29 -36 -49 -36 -44 0 29 23 136 29 136 5 0 16 -9 25 -19z"/>
    </g>
</svg>